<?xml version="1.0" encoding="UTF-8"?>
<svg id="Capa_1" xmlns="http://www.w3.org/2000/svg" version="1.1" viewBox="0 0 792 612">
  <!-- Generator: Adobe Illustrator 30.2.1, SVG Export Plug-In . SVG Version: 2.1.1 Build 1)  -->
  <defs>
    <style>
      .st0 {
        stroke-width: 2px;
      }

      .st0, .st1, .st2, .st3, .st4 {
        fill: #29235c;
      }

      .st0, .st2, .st3 {
        stroke: #fff;
        stroke-miterlimit: 10;
      }

      .st5 {
        fill: #fff;
      }

      .st3 {
        stroke-width: 3px;
      }

      .st4 {
        font-family: LTWave-BlackItalic, 'LT Wave';
        font-size: 220px;
        font-style: italic;
        font-weight: 800;
      }
    </style>
  </defs>
  <g>
    <text class="st4" transform="translate(400.71 245.67)"><tspan x="0" y="0">B</tspan></text>
    <rect class="st1" x="467" y="126" width="57" height="34"/>
    <rect class="st1" x="455" y="184" width="63" height="37"/>
  </g>
  <g>
    <ellipse class="st2" cx="486.5" cy="170.5" rx="50" ry="48"/>
    <rect class="st5" x="486" y="122" width="2" height="96"/>
    <rect class="st5" x="437" y="169" width="100" height="2"/>
    <ellipse class="st3" cx="487" cy="170" rx="37.5" ry="35.5"/>
    <circle class="st0" cx="457.5" cy="193.5" r="7.5"/>
    <circle class="st0" cx="513.5" cy="193.5" r="7.5"/>
    <circle class="st0" cx="516.5" cy="150.5" r="7.5"/>
    <rect class="st5" x="486" y="123" width="2" height="96"/>
    <rect class="st5" x="437" y="170" width="100" height="2"/>
    <circle class="st0" cx="487.5" cy="170.5" r="19.5"/>
    <circle class="st0" cx="487.5" cy="170.5" r="7.5"/>
    <rect class="st5" x="468.19" y="135.85" width="3.42" height="33.17" transform="translate(21.93 360.69) rotate(-42.91)"/>
    <rect class="st1" x="470" y="129" width="16" height="12"/>
    <rect class="st1" x="480" y="144" width="6" height="12"/>
    <rect class="st1" x="469.77" y="131.57" width="9.43" height="32.84" transform="translate(26.19 362.61) rotate(-42.91)"/>
    <rect class="st5" x="438" y="169" width="100" height="2"/>
    <rect class="st5" x="486" y="123" width="2" height="96"/>
  </g>
</svg>